<?xml version="1.0" encoding="utf-8"?>
<!-- Generator: Adobe Illustrator 16.0.0, SVG Export Plug-In . SVG Version: 6.00 Build 0)  -->
<!DOCTYPE svg PUBLIC "-//W3C//DTD SVG 1.1//EN" "http://www.w3.org/Graphics/SVG/1.1/DTD/svg11.dtd">
<svg version="1.1" id="Layer_1" xmlns="http://www.w3.org/2000/svg" xmlns:xlink="http://www.w3.org/1999/xlink" x="0px" y="0px"
	 width="14.17px" height="14.17px" viewBox="0 0 14.17 14.17" enable-background="new 0 0 14.17 14.17" xml:space="preserve">
<path d="M7.087,2.422c1.648,0,2.988,1.579,2.988,3.519s-1.34,3.518-2.988,3.518S4.099,7.881,4.099,5.941S5.439,2.422,7.087,2.422
	 M7.087,1.173c-2.34,0-4.238,2.134-4.238,4.768c0,2.633,1.898,4.768,4.238,4.768c2.341,0,4.238-2.135,4.238-4.768
	C11.325,3.307,9.429,1.173,7.087,1.173L7.087,1.173z"/>
<g>
	<path d="M7.086,12.914c-0.345,0-0.625-0.272-0.625-0.608V2.035c0-0.337,0.28-0.61,0.625-0.61c0.345,0,0.625,0.273,0.625,0.61
		v10.271C7.711,12.642,7.432,12.914,7.086,12.914z"/>
</g>
</svg>
