<?xml version="1.0" encoding="utf-8"?>
<!-- Generator: Adobe Illustrator 16.0.0, SVG Export Plug-In . SVG Version: 6.00 Build 0)  -->
<!DOCTYPE svg PUBLIC "-//W3C//DTD SVG 1.1//EN" "http://www.w3.org/Graphics/SVG/1.1/DTD/svg11.dtd">
<svg version="1.1" id="Layer_1" xmlns="http://www.w3.org/2000/svg" xmlns:xlink="http://www.w3.org/1999/xlink" x="0px" y="0px"
	 width="14.17px" height="14.17px" viewBox="0 0 14.17 14.17" enable-background="new 0 0 14.17 14.17" xml:space="preserve">
<g>
	<path d="M6.835,2.203c0.138-0.279,0.364-0.279,0.502,0l1.25,2.534C8.726,5.016,9.092,5.281,9.4,5.326l2.794,0.406
		c0.309,0.045,0.379,0.26,0.155,0.477l-2.023,1.973c-0.224,0.218-0.363,0.646-0.311,0.954l0.479,2.784
		c0.053,0.308-0.13,0.439-0.406,0.295l-2.5-1.314c-0.276-0.145-0.728-0.145-1.004,0l-2.5,1.314
		c-0.276,0.145-0.459,0.013-0.406-0.295l0.478-2.784c0.053-0.308-0.087-0.736-0.31-0.954L1.823,6.209
		C1.6,5.992,1.67,5.777,1.979,5.732l2.794-0.406c0.309-0.045,0.674-0.311,0.812-0.59L6.835,2.203z"/>
</g>
</svg>
